# xmcd
#
# Track frame offsets:
#	150
#	23253
#	39960
#	56572
#	70899
#	86150
#	101852
#	112036
#	135477
#	152664
#	167078
#	181824
#	204840
#	233538
#
# Disc length: 3249 seconds
#
# Revision: 0
# Processed by: cddbd v1.5.2PL0 Copyright (c) Steve Scherf et al.
# Submitted via: EZCDAudioConverter 2.4.0.1
#
DISCID=a90caf0e
DTITLE=Bruno and Marrone Feat. Chitãozinho and Xororó - Clássicos (Ao Vivo) [CD 1)
DYEAR=2016
DGENRE=Sertanejo
TTITLE0=Bruno and Marrone Feat. Chitãozinho and Xororó - Drylands - Página De Amig
TTITLE0=os
TTITLE1=Bruno and Marrone - Inevitável
TTITLE2=Bruno and Marrone - Choram As Rosas (Lloran Las Rosas)
TTITLE3=Bruno and Marrone Feat. Chitãozinho and Xororó - Deixei De Ser Cowboy Por 
TTITLE3=Ela
TTITLE4=Bruno and Marrone Feat. Chitãozinho and Xororó - Alô
TTITLE5=Bruno and Marrone - Vidro Fumê
TTITLE6=Bruno and Marrone - Deixa
TTITLE7=Bruno and Marrone Feat. Chitãozinho and Xororó - Sinônimos
TTITLE8=Bruno and Marrone Feat. Chitãozinho and Xororó - Se Deus Me Ouvisse
TTITLE9=Bruno and Marrone - Você Me Trocou
TTITLE10=Bruno and Marrone - Amor Não Vai Faltar
TTITLE11=Bruno and Marrone - Homem Do Meu Tempo
TTITLE12=Bruno and Marrone Feat. Chitãozinho and Xororó - Pago Dobrado - Amor A Tr
TTITLE12=ês (Uma Mulher E Dois Homens) - Faz Um Ano - Estrada Da Vida
TTITLE13=Bruno and Marrone Feat. Chitãozinho and Xororó - 60 Dias Apaixonado
EXTD=
EXTT0=
EXTT1=
EXTT2=
EXTT3=
EXTT4=
EXTT5=
EXTT6=
EXTT7=
EXTT8=
EXTT9=
EXTT10=
EXTT11=
EXTT12=
EXTT13=
PLAYORDER=
